<?xml version="1.0" encoding="UTF-8" standalone="no"?>
<svg
   xmlns:dc="http://purl.org/dc/elements/1.1/"
   xmlns:cc="http://creativecommons.org/ns#"
   xmlns:rdf="http://www.w3.org/1999/02/22-rdf-syntax-ns#"
   xmlns:svg="http://www.w3.org/2000/svg"
   xmlns="http://www.w3.org/2000/svg"
   xmlns:sodipodi="http://sodipodi.sourceforge.net/DTD/sodipodi-0.dtd"
   xmlns:inkscape="http://www.inkscape.org/namespaces/inkscape"
   width="16"
   viewBox="0 0 16 16"
   height="16"
   id="svg2"
   version="1.1"
   inkscape:version="0.91 r13725"
   sodipodi:docname="audio-volume-low-symbolic.svg">
  <metadata
     id="metadata30">
    <rdf:RDF>
      <cc:Work
         rdf:about="">
        <dc:format>image/svg+xml</dc:format>
        <dc:type
           rdf:resource="http://purl.org/dc/dcmitype/StillImage" />
        <dc:title />
      </cc:Work>
    </rdf:RDF>
  </metadata>
  <sodipodi:namedview
     pagecolor="#ffffff"
     bordercolor="#666666"
     borderopacity="1"
     objecttolerance="10"
     gridtolerance="10"
     guidetolerance="10"
     inkscape:pageopacity="0"
     inkscape:pageshadow="2"
     inkscape:window-width="1920"
     inkscape:window-height="1046"
     id="namedview28"
     showgrid="true"
     inkscape:zoom="54.8125"
     inkscape:cx="8"
     inkscape:cy="8"
     inkscape:window-x="1920"
     inkscape:window-y="34"
     inkscape:window-maximized="1"
     inkscape:current-layer="svg2"
     showguides="true"
     inkscape:snap-intersection-paths="false"
     inkscape:object-paths="false">
    <inkscape:grid
       type="xygrid"
       id="grid4158" />
  </sodipodi:namedview>
  <defs
     id="defs4" />
  <path
     d="m 6.2497941,2.750206 -3.4998627,3.4998627 0,3.4998627 3.4998627,3.4998626 0,-4.3748283 L 7.1247598,8 6.2497941,7.1250344 Z"
     id="path18"
     inkscape:connector-curvature="0"
     style="fill:#bebebe"
     sodipodi:nodetypes="cccccccc" />
  <path
     d="M 2.137458,5.375103 C 1.1895079,5.375103 1,6.3929235 1,7.4750206 l 0,1.0499588 c 0,1.0821112 0.2127217,2.0999176 1.137458,2.0999176 l 1.487439,0 0,-5.249794 z"
     id="path20"
     inkscape:connector-curvature="0"
     style="fill:#bebebe"
     sodipodi:nodetypes="ssssccs" />
  <path
     style="opacity:0.3;fill:#bebebe;fill-opacity:1;fill-rule:evenodd;stroke:none;stroke-width:1px;stroke-linecap:butt;stroke-linejoin:miter;stroke-opacity:1"
     d="M 12.497607,1.8752403 11.260212,3.112076 C 12.206866,4.0587297 13.24113,5.7660045 13.24952,8 c 0,2.232469 -1.043761,3.942378 -1.989308,4.887924 l 1.237395,1.236836 C 13.770746,12.851621 15.016229,10.624897 14.999451,8 15.030128,5.375103 13.770226,3.1478592 12.497607,1.8752403 Z"
     id="path4508"
     inkscape:connector-curvature="0"
     sodipodi:nodetypes="ccccccc" />
  <path
     style="opacity:0.3;fill:#bebebe;fill-opacity:1;fill-rule:evenodd;stroke:none;stroke-width:1px;stroke-linecap:butt;stroke-linejoin:miter;stroke-opacity:1"
     d="M 10.624622,3.726377 9.3906753,4.9604671 C 10.075448,5.6452395 10.624622,6.7479776 10.624622,8 c 0,1.2520224 -0.548807,2.354491 -1.2339467,3.039631 l 1.2339467,1.233701 C 11.740768,11.157187 12.374554,9.6222695 12.374554,8 c 0,-1.6148649 -0.636041,-3.1597325 -1.749932,-4.273623 z"
     id="path4529"
     inkscape:connector-curvature="0"
     sodipodi:nodetypes="ccccccc" />
  <path
     style="opacity:1;fill:#bebebe;fill-opacity:1;fill-rule:evenodd;stroke:none;stroke-width:1px;stroke-linecap:butt;stroke-linejoin:miter;stroke-opacity:1"
     d="M 8.5500789,5.375103 7.308036,6.6084805 C 7.9997254,7.1742162 7.9997254,7.8299531 7.9997254,8 c 0,0.1690938 -0.015575,0.8232267 -0.6920978,1.3911955 L 8.5499969,10.624897 C 9.6154699,9.7085403 9.7496568,8.5236408 9.7496568,8 c 0,-0.5245445 -0.1273285,-1.6949039 -1.1995779,-2.624897 z"
     id="path4569"
     inkscape:connector-curvature="0"
     sodipodi:nodetypes="ccscccc" />
</svg>
