<?xml version="1.0" encoding="UTF-8" standalone="no"?>
<svg
   xmlns:dc="http://purl.org/dc/elements/1.1/"
   xmlns:cc="http://creativecommons.org/ns#"
   xmlns:rdf="http://www.w3.org/1999/02/22-rdf-syntax-ns#"
   xmlns:svg="http://www.w3.org/2000/svg"
   xmlns="http://www.w3.org/2000/svg"
   xmlns:sodipodi="http://sodipodi.sourceforge.net/DTD/sodipodi-0.dtd"
   xmlns:inkscape="http://www.inkscape.org/namespaces/inkscape"
   width="16"
   viewBox="0 0 16 16"
   height="16"
   id="svg2"
   version="1.1"
   inkscape:version="0.91 r13725"
   sodipodi:docname="audio-volume-medium-symbolic.svg">
  <metadata
     id="metadata30">
    <rdf:RDF>
      <cc:Work
         rdf:about="">
        <dc:format>image/svg+xml</dc:format>
        <dc:type
           rdf:resource="http://purl.org/dc/dcmitype/StillImage" />
        <dc:title />
      </cc:Work>
    </rdf:RDF>
  </metadata>
  <sodipodi:namedview
     pagecolor="#ffffff"
     bordercolor="#666666"
     borderopacity="1"
     objecttolerance="10"
     gridtolerance="10"
     guidetolerance="10"
     inkscape:pageopacity="0"
     inkscape:pageshadow="2"
     inkscape:window-width="1920"
     inkscape:window-height="1046"
     id="namedview28"
     showgrid="true"
     inkscape:zoom="54.8125"
     inkscape:cx="8"
     inkscape:cy="8"
     inkscape:window-x="1920"
     inkscape:window-y="34"
     inkscape:window-maximized="1"
     inkscape:current-layer="svg2"
     showguides="true"
     inkscape:snap-intersection-paths="false"
     inkscape:object-paths="false">
    <inkscape:grid
       type="xygrid"
       id="grid4158" />
  </sodipodi:namedview>
  <defs
     id="defs4" />
  <path
     d="m 6.2496691,2.7498309 -3.5001127,3.5001127 0,3.5001128 3.5001127,3.5001126 0,-4.3751408 L 7.1246973,8 6.2496691,7.1249718 Z"
     id="path18"
     inkscape:connector-curvature="0"
     style="fill:#bebebe"
     sodipodi:nodetypes="cccccccc" />
  <path
     d="m 2.1370393,5.3749155 c -0.9480178,0 -1.13753929,1.0178931 -1.13753929,2.1000676 l 0,1.0500338 c 0,1.0821885 0.21273689,2.1000681 1.13753929,2.1000681 l 1.4875452,0 0,-5.2501695 z"
     id="path20"
     inkscape:connector-curvature="0"
     style="fill:#bebebe"
     sodipodi:nodetypes="ssssccs" />
  <path
     style="opacity:0.3;fill:#bebebe;fill-opacity:1;fill-rule:evenodd;stroke:none;stroke-width:1px;stroke-linecap:butt;stroke-linejoin:miter;stroke-opacity:1"
     d="M 12.497929,1.8748027 11.260445,3.1117268 C 12.207166,4.0584482 13.241505,5.7658449 13.249895,8 c 0,2.232628 -1.043836,3.942659 -1.98945,4.888273 l 1.237484,1.236924 C 13.771158,12.851967 15.01673,10.625085 14.999951,8 15.03063,5.3749155 13.770639,3.1475126 12.497929,1.8748027 Z"
     id="path4508"
     inkscape:connector-curvature="0"
     sodipodi:nodetypes="ccccccc" />
  <path
     style="opacity:1;fill:#bebebe;fill-opacity:1;fill-rule:evenodd;stroke:none;stroke-width:1px;stroke-linecap:butt;stroke-linejoin:miter;stroke-opacity:1"
     d="M 10.62481,3.7260717 9.3907746,4.9602499 C 10.075596,5.6450712 10.62481,6.7478881 10.62481,8 c 0,1.2521118 -0.548847,2.354659 -1.2340354,3.039848 l 1.2340354,1.23379 C 11.741035,11.157412 12.374866,9.6223854 12.374866,8 c 0,-1.6149803 -0.636086,-3.1599582 -1.750056,-4.2739283 z"
     id="path4529"
     inkscape:connector-curvature="0"
     sodipodi:nodetypes="ccccccc" />
  <path
     style="opacity:1;fill:#bebebe;fill-opacity:1;fill-rule:evenodd;stroke:none;stroke-width:1px;stroke-linecap:butt;stroke-linejoin:miter;stroke-opacity:1"
     d="M 8.5501182,5.3749155 7.3079866,6.6083811 C 7.9997255,7.1741572 7.9997255,7.8299409 7.9997255,8 c 0,0.1691058 -0.015576,0.8232855 -0.6921473,1.3912948 l 1.242458,1.2337902 C 9.6155853,9.7086623 9.7497818,8.5236782 9.7497818,8 c 0,-0.524582 -0.1273376,-1.695025 -1.1996636,-2.6250845 z"
     id="path4569"
     inkscape:connector-curvature="0"
     sodipodi:nodetypes="ccscccc" />
</svg>
