<?xml version="1.0" encoding="UTF-8" standalone="no"?>
<!-- Created with Inkscape (http://www.inkscape.org/) -->

<svg
   xmlns:dc="http://purl.org/dc/elements/1.1/"
   xmlns:cc="http://creativecommons.org/ns#"
   xmlns:rdf="http://www.w3.org/1999/02/22-rdf-syntax-ns#"
   xmlns:svg="http://www.w3.org/2000/svg"
   xmlns="http://www.w3.org/2000/svg"
   xmlns:sodipodi="http://sodipodi.sourceforge.net/DTD/sodipodi-0.dtd"
   xmlns:inkscape="http://www.inkscape.org/namespaces/inkscape"
   id="svg7384"
   style="enable-background:new"
   height="256"
   width="256"
   version="1.1"
   inkscape:version="0.91 r13725"
   sodipodi:docname="crazy-tux_start-here-symbolic.svg">
  <defs
     id="defs9" />
  <sodipodi:namedview
     pagecolor="#ffffff"
     bordercolor="#666666"
     borderopacity="1"
     objecttolerance="10"
     gridtolerance="10"
     guidetolerance="10"
     inkscape:pageopacity="0"
     inkscape:pageshadow="2"
     inkscape:window-width="1920"
     inkscape:window-height="1027"
     id="namedview7"
     showgrid="false"
     inkscape:zoom="3.328125"
     inkscape:cx="128"
     inkscape:cy="128"
     inkscape:window-x="1920"
     inkscape:window-y="25"
     inkscape:window-maximized="1"
     inkscape:current-layer="svg7384" />
  <metadata
     id="metadata90">
    <rdf:RDF>
      <cc:Work
         rdf:about="">
        <dc:format>image/svg+xml</dc:format>
        <dc:type
           rdf:resource="http://purl.org/dc/dcmitype/StillImage" />
        <dc:title>Moka Symbolic Icon Theme</dc:title>
      </cc:Work>
    </rdf:RDF>
  </metadata>
  <title
     id="title8473">Moka Symbolic Icon Theme</title>
  <circle
     r="128"
     cy="128"
     cx="128"
     id="circle8209"
     style="opacity:1;fill:#f2f2f2;fill-opacity:1;stroke:none;stroke-width:1.26467824;stroke-linecap:butt;stroke-linejoin:miter;stroke-miterlimit:4;stroke-dasharray:none;stroke-dashoffset:0;stroke-opacity:1" />
  <path
     style="fill:#ffffff;fill-rule:evenodd;stroke:none;stroke-width:1px;stroke-linecap:butt;stroke-linejoin:miter;stroke-opacity:1"
     d="m 107.86854,40.56336 c -1.20187,0 -22.535207,15.62448 -23.737084,16.82624 -1.201872,1.2016 -9.014085,9.91552 -12.619718,19.53056 C 67.906104,86.5352 64,105.76528 64,109.97184 c 0,4.20656 -1.201872,32.15024 -1.802818,36.95776 -0.600944,4.80752 0.901408,35.75584 0.901408,35.75584 l 12.01878,20.73232 34.55399,10.81696 24.03756,-3.00464 48.37559,-6.00944 7.81221,-17.12672 c 0,0 0.90144,-98.55408 0.60096,-100.05632 -0.30048,-1.5024 -22.5352,-33.95312 -22.5352,-33.95312 z"
     id="path8030"
     inkscape:connector-curvature="0" />
  <path
     id="path8304"
     style="fill:#000000;fill-opacity:1;fill-rule:nonzero;stroke:none"
     d="m 128,26.72928 c -45.641949,0 -74.774987,37.9752 -79.034666,87.09456 l -25.886576,18.72752 26.597743,13.74928 c 2.607262,20.04304 9.268121,37.90288 19.770521,51.63088 l 3.081735,-1.328 c -0.196896,-0.2848 -0.342384,-0.56 -0.474112,-0.8064 -3.548496,-6.63792 -2.986919,-13.15472 -2.986919,-20.14992 0,-30.58464 2.348276,-56.77184 27.403743,-67.65584 -8.612183,-4.74848 -14.744919,-16.04 -14.744919,-29.25264 0,-17.49072 10.651789,-31.67072 23.75307,-31.67072 12.0377,0 21.88575,12.03536 23.42119,27.54592 3.17662,-9.12928 11.78742,-15.74048 21.99885,-15.74048 12.90186,0 23.37378,10.47168 23.37378,23.37376 0,12.4512 -9.8169,22.53552 -22.09368,23.23152 31.93518,8.77184 34.75248,36.8408 34.75248,70.1688 0,6.99504 0.56192,13.51184 -2.9869,20.14976 -0.1296,0.2464 -0.27696,0.5216 -0.47424,0.8064 l 2.98696,1.4224 c -6.45024,-3.31216 -15.38033,-5.35728 -25.22284,-5.35728 -15.20929,0 -28.11682,4.91872 -33.23534,11.80544 -5.11864,-6.88672 -18.02624,-11.80544 -33.235333,-11.80544 -19.685515,0 -35.653309,8.19216 -35.653309,18.3008 0,10.10912 15.967794,18.3008 35.653309,18.3008 15.209093,0 28.116693,-4.91872 33.235333,-11.80544 5.11852,6.88672 18.02605,11.80544 33.23532,11.80544 19.68502,0 35.65333,-8.19168 35.65333,-18.3008 0,-5.04448 -3.95517,-9.63264 -10.38307,-12.94336 10.5419,-13.74032 17.20537,-31.64208 19.81788,-51.72576 l 26.59786,-13.7496 -25.88659,-18.72752 C 202.77498,64.70448 173.64194,26.72928 128,26.72928 Z m -10.76237,50.73008 c -4.61106,0 -8.34439,4.01712 -8.34439,8.96064 0,4.9432 3.73333,8.9608 8.34439,8.9608 4.61106,0 8.34439,-4.0176 8.34439,-8.9608 0,-4.94352 -3.73333,-8.96064 -8.34439,-8.96064 z m -1.94388,2.37056 c 1.80484,0 3.31879,1.5872 3.31879,3.50848 0,1.92128 -1.51397,3.46096 -3.31879,3.46096 -1.80506,0 -3.27138,-1.5392 -3.27138,-3.46096 0,-1.92128 1.46633,-3.50848 3.27138,-3.50848 z m 20.43428,0.9488 c -2.7489,0 -4.97819,2.384 -4.97819,5.31008 0,2.92624 2.22929,5.26272 4.97819,5.26272 2.74891,0 4.97819,-2.33648 4.97819,-5.26272 0,-2.92608 -2.22928,-5.31008 -4.97819,-5.31008 z m -1.28019,1.70688 c 1.04623,0 1.89642,0.9248 1.89642,2.03872 0,1.1136 -0.85032,2.03856 -1.89642,2.03856 -1.04622,0 -1.89646,-0.9248 -1.89646,-2.03856 0,-1.1136 0.85032,-2.03872 1.89646,-2.03872 z m -6.30562,5.0256 c -0.74776,3.44896 -1.99898,6.54608 -3.50843,9.38736 l -13.93892,0.616 18.25336,26.17104 11.56835,-20.1024 c 0.34192,0.048 0.74878,0.048 1.09042,0.096 -0.30893,-0.128 -0.5517,-0.3744 -0.85346,-0.5216 l 4.07736,-7.11184 -12.27953,0.5216 c -2.06199,-2.64016 -3.62833,-5.68016 -4.40915,-9.05552 z"
     inkscape:connector-curvature="0"
     sodipodi:nodetypes="scccccsscsscsscscccscssscssccccssssssssssssssssssssscccccccccc" />
  <g
     style="opacity:1;fill:#f5f5f5;fill-opacity:1"
     id="g7"
     transform="matrix(0.34766064,0,0,0.34766064,41.331886,36.66608)" />
  <g
     style="opacity:1;fill:#f5f5f5;fill-opacity:1"
     id="g9"
     transform="matrix(0.34766064,0,0,0.34766064,41.331886,36.66608)" />
  <g
     style="opacity:1;fill:#f5f5f5;fill-opacity:1"
     id="g11"
     transform="matrix(0.34766064,0,0,0.34766064,41.331886,36.66608)" />
  <g
     style="opacity:1;fill:#f5f5f5;fill-opacity:1"
     id="g13"
     transform="matrix(0.34766064,0,0,0.34766064,41.331886,36.66608)" />
  <g
     style="opacity:1;fill:#f5f5f5;fill-opacity:1"
     id="g15"
     transform="matrix(0.34766064,0,0,0.34766064,41.331886,36.66608)" />
  <g
     style="opacity:1;fill:#f5f5f5;fill-opacity:1"
     id="g17"
     transform="matrix(0.34766064,0,0,0.34766064,41.331886,36.66608)" />
  <g
     style="opacity:1;fill:#f5f5f5;fill-opacity:1"
     id="g19"
     transform="matrix(0.34766064,0,0,0.34766064,41.331886,36.66608)" />
  <g
     style="opacity:1;fill:#f5f5f5;fill-opacity:1"
     id="g21"
     transform="matrix(0.34766064,0,0,0.34766064,41.331886,36.66608)" />
  <g
     style="opacity:1;fill:#f5f5f5;fill-opacity:1"
     id="g23"
     transform="matrix(0.34766064,0,0,0.34766064,41.331886,36.66608)" />
  <g
     style="opacity:1;fill:#f5f5f5;fill-opacity:1"
     id="g25"
     transform="matrix(0.34766064,0,0,0.34766064,41.331886,36.66608)" />
  <g
     style="opacity:1;fill:#f5f5f5;fill-opacity:1"
     id="g27"
     transform="matrix(0.34766064,0,0,0.34766064,41.331886,36.66608)" />
  <g
     style="opacity:1;fill:#f5f5f5;fill-opacity:1"
     id="g29"
     transform="matrix(0.34766064,0,0,0.34766064,41.331886,36.66608)" />
  <g
     style="opacity:1;fill:#f5f5f5;fill-opacity:1"
     id="g31"
     transform="matrix(0.34766064,0,0,0.34766064,41.331886,36.66608)" />
  <g
     style="opacity:1;fill:#f5f5f5;fill-opacity:1"
     id="g33"
     transform="matrix(0.34766064,0,0,0.34766064,41.331886,36.66608)" />
  <g
     style="opacity:1;fill:#f5f5f5;fill-opacity:1"
     id="g35"
     transform="matrix(0.34766064,0,0,0.34766064,41.331886,36.66608)" />
</svg>
